<svg width="28" height="28" viewBox="0 0 28 28" fill="none" xmlns="http://www.w3.org/2000/svg">
<circle cx="13.5" cy="13.5" r="7.5" fill="url(#paint0_linear_307_54262)"/>
<path d="M2 14C2 7.37259 7.37258 2 14 2C20.6274 2 26 7.37258 26 14C26 20.6274 20.6274 26 14 26C7.37258 26 2 20.6274 2 14ZM14.2197 8.96967C13.9268 9.26256 13.9268 9.73744 14.2197 10.0303L17.4393 13.25L8.75 13.25C8.33579 13.25 8 13.5858 8 14C8 14.4142 8.33579 14.75 8.75 14.75L17.4393 14.75L14.2197 17.9697C13.9268 18.2626 13.9268 18.7374 14.2197 19.0303C14.5126 19.3232 14.9874 19.3232 15.2803 19.0303L19.7803 14.5303C20.0732 14.2374 20.0732 13.7626 19.7803 13.4697L15.2803 8.96967C14.9874 8.67678 14.5126 8.67678 14.2197 8.96967Z" fill="white"/>
<defs>
<linearGradient id="paint0_linear_307_54262" x1="5.79358" y1="22.25" x2="21.4474" y2="21.8514" gradientUnits="userSpaceOnUse">
<stop stop-color="#007140"/>
<stop offset="1" stop-color="#00A235"/>
</linearGradient>
</defs>
</svg>
