<svg width="18" height="19" viewBox="0 0 18 19" fill="none" xmlns="http://www.w3.org/2000/svg">
<path d="M6.80514 10.4728C6.5763 10.7016 6.5763 11.0726 6.80514 11.3015C7.03397 11.5303 7.40496 11.5302 7.63377 11.3014L9.20818 9.72701C9.43875 9.49647 9.43409 9.12428 9.20818 8.89838L7.63374 7.32396C7.40493 7.09512 7.03394 7.09515 6.80511 7.32396C6.57627 7.55277 6.57627 7.92379 6.80511 8.15262L7.37927 8.72675L2.52539 8.72672C2.20181 8.72672 1.93945 8.98905 1.93945 9.31266C1.93945 9.63628 2.20178 9.8986 2.52539 9.8986L7.3793 9.89863L6.80514 10.4728Z" fill="white"/>
<path d="M15.4746 1.8125H5.92383C5.60021 1.8125 5.33789 2.07482 5.33789 2.39844V4.625C5.33789 4.94861 5.60021 5.21094 5.92383 5.21094C6.24744 5.21094 6.50977 4.94861 6.50977 4.625V2.98438H14.8887V15.6406H6.50977V14C6.50977 13.6764 6.24744 13.4141 5.92383 13.4141C5.60021 13.4141 5.33789 13.6764 5.33789 14V16.2266C5.33789 16.5502 5.60021 16.8125 5.92383 16.8125H15.4746C15.7982 16.8125 16.0605 16.5502 16.0605 16.2266V2.39844C16.0605 2.07482 15.7982 1.8125 15.4746 1.8125Z" fill="white"/>
</svg>
