<svg width="28" height="29" viewBox="0 0 28 29" fill="none" xmlns="http://www.w3.org/2000/svg">
<rect y="0.3125" width="28" height="28" rx="4" fill="#5657D3"/>
<path d="M11.8051 15.4726C11.5763 15.7014 11.5763 16.0724 11.8051 16.3012C12.034 16.53 12.405 16.53 12.6338 16.3012L14.2082 14.7268C14.4387 14.4962 14.4341 14.124 14.2082 13.8981L12.6337 12.3237C12.4049 12.0949 12.0339 12.0949 11.8051 12.3237C11.5763 12.5525 11.5763 12.9235 11.8051 13.1524L12.3793 13.7265L7.52539 13.7265C7.20181 13.7265 6.93945 13.9888 6.93945 14.3124C6.93945 14.636 7.20178 14.8984 7.52539 14.8984L12.3793 14.8984L11.8051 15.4726Z" fill="white"/>
<path d="M20.4746 6.8125H10.9238C10.6002 6.8125 10.3379 7.07482 10.3379 7.39844V9.625C10.3379 9.94861 10.6002 10.2109 10.9238 10.2109C11.2474 10.2109 11.5098 9.94861 11.5098 9.625V7.98438H19.8887V20.6406H11.5098V19C11.5098 18.6764 11.2474 18.4141 10.9238 18.4141C10.6002 18.4141 10.3379 18.6764 10.3379 19V21.2266C10.3379 21.5502 10.6002 21.8125 10.9238 21.8125H20.4746C20.7982 21.8125 21.0605 21.5502 21.0605 21.2266V7.39844C21.0605 7.07482 20.7982 6.8125 20.4746 6.8125Z" fill="white"/>
</svg>
