<svg width="24" height="25" viewBox="0 0 24 25" fill="none" xmlns="http://www.w3.org/2000/svg">
<path d="M13.9247 2.81543C14.7225 2.81543 15.4607 3.2379 15.8647 3.9258L16.6793 5.31238H18.75C20.5449 5.31238 22 6.76746 22 8.56238V18.0624C22 19.8573 20.5449 21.3124 18.75 21.3124H5.25C3.45507 21.3124 2 19.8573 2 18.0624V8.56238C2 6.76746 3.45507 5.31238 5.25 5.31238H7.33042L8.205 3.88808C8.61425 3.22158 9.34026 2.81543 10.1224 2.81543H13.9247ZM13.9247 4.31543H10.1224C9.89892 4.31543 9.6892 4.4149 9.54793 4.58322L9.48325 4.67298L8.38913 6.45483C8.25271 6.677 8.01071 6.81238 7.75 6.81238H5.25C4.2835 6.81238 3.5 7.59588 3.5 8.56238V18.0624C3.5 19.0289 4.2835 19.8124 5.25 19.8124H18.75C19.7165 19.8124 20.5 19.0289 20.5 18.0624V8.56238C20.5 7.59588 19.7165 6.81238 18.75 6.81238H16.25C15.9841 6.81238 15.738 6.67156 15.6033 6.44226L14.5714 4.68555C14.4367 4.45625 14.1906 4.31543 13.9247 4.31543ZM12 8.31238C14.4853 8.31238 16.5 10.3271 16.5 12.8124C16.5 15.2977 14.4853 17.3124 12 17.3124C9.51472 17.3124 7.5 15.2977 7.5 12.8124C7.5 10.3271 9.51472 8.31238 12 8.31238ZM12 9.81238C10.3431 9.81238 9 11.1555 9 12.8124C9 14.4692 10.3431 15.8124 12 15.8124C13.6569 15.8124 15 14.4692 15 12.8124C15 11.1555 13.6569 9.81238 12 9.81238Z" fill="white"/>
</svg>
