<svg width="28" height="29" viewBox="0 0 28 29" fill="none" xmlns="http://www.w3.org/2000/svg">
<rect y="0.3125" width="28" height="28" rx="4" fill="#4BA5CC"/>
<path d="M13.3535 12.1661C13.5488 11.9708 13.5488 11.6542 13.3536 11.459C13.1583 11.2637 12.8417 11.2637 12.6465 11.4589L11.2344 12.871L10.8372 12.5082C10.6333 12.322 10.317 12.3363 10.1308 12.5402C9.94459 12.7441 9.95891 13.0604 10.1628 13.2466L10.9128 13.9316C11.1102 14.1119 11.4145 14.105 11.6035 13.916L13.3535 12.1661ZM13.3536 16.459C13.5488 16.6542 13.5488 16.9708 13.3535 17.1661L11.6035 18.916C11.4145 19.105 11.1102 19.1119 10.9128 18.9316L10.1628 18.2466C9.95891 18.0604 9.94459 17.7441 10.1308 17.5402C10.317 17.3363 10.6333 17.322 10.8372 17.5082L11.2344 17.871L12.6465 16.4589C12.8417 16.2637 13.1583 16.2637 13.3536 16.459ZM15 17.0625C14.7239 17.0625 14.5 17.2864 14.5 17.5625C14.5 17.8386 14.7239 18.0625 15 18.0625H17.5C17.7761 18.0625 18 17.8386 18 17.5625C18 17.2864 17.7761 17.0625 17.5 17.0625H15ZM14.5 12.5625C14.5 12.2864 14.7239 12.0625 15 12.0625H17.5C17.7761 12.0625 18 12.2864 18 12.5625C18 12.8386 17.7761 13.0625 17.5 13.0625H15C14.7239 13.0625 14.5 12.8386 14.5 12.5625ZM12.5 6.3125C11.8469 6.3125 11.2913 6.7299 11.0854 7.3125H9.5C8.67157 7.3125 8 7.98407 8 8.8125V20.8125C8 21.6409 8.67157 22.3125 9.5 22.3125H18.5C19.3284 22.3125 20 21.6409 20 20.8125V8.8125C20 7.98407 19.3284 7.3125 18.5 7.3125H16.9146C16.7087 6.7299 16.1531 6.3125 15.5 6.3125H12.5ZM12 7.8125C12 7.53636 12.2239 7.3125 12.5 7.3125H15.5C15.7761 7.3125 16 7.53636 16 7.8125C16 8.08864 15.7761 8.3125 15.5 8.3125H12.5C12.2239 8.3125 12 8.08864 12 7.8125ZM9.5 8.3125H11.0854C11.2913 8.8951 11.8469 9.3125 12.5 9.3125H15.5C16.1531 9.3125 16.7087 8.8951 16.9146 8.3125H18.5C18.7761 8.3125 19 8.53636 19 8.8125V20.8125C19 21.0886 18.7761 21.3125 18.5 21.3125H9.5C9.22386 21.3125 9 21.0886 9 20.8125V8.8125C9 8.53636 9.22386 8.3125 9.5 8.3125Z" fill="white"/>
</svg>
