<svg width="20" height="20" viewBox="0 0 20 20" fill="none" xmlns="http://www.w3.org/2000/svg">
<path d="M3.25906 11.6021C3.94251 8.32689 6.79434 6 9.99998 6C13.2056 6 16.0574 8.32688 16.7409 11.6021C16.7973 11.8725 17.0622 12.0459 17.3325 11.9895C17.6028 11.933 17.7762 11.6682 17.7198 11.3979C16.9425 7.67312 13.6934 5 9.99998 5C6.30657 5 3.05739 7.67311 2.28014 11.3979C2.22374 11.6682 2.39715 11.933 2.66747 11.9895C2.93779 12.0459 3.20265 11.8725 3.25906 11.6021ZM9.9895 8C11.9225 8 13.4895 9.567 13.4895 11.5C13.4895 13.433 11.9225 15 9.9895 15C8.0565 15 6.4895 13.433 6.4895 11.5C6.4895 9.567 8.0565 8 9.9895 8Z" fill="#2C3032"/>
</svg>
