<svg width="28" height="29" viewBox="0 0 28 29" fill="none" xmlns="http://www.w3.org/2000/svg">
<rect y="0.3125" width="28" height="28" rx="4" fill="#338D51"/>
<path d="M14 7.3125C13.1716 7.3125 12.5 7.98407 12.5 8.8125C12.5 9.64093 13.1716 10.3125 14 10.3125C14.8284 10.3125 15.5 9.64093 15.5 8.8125C15.5 7.98407 14.8284 7.3125 14 7.3125ZM11.5 8.8125C11.5 7.43179 12.6193 6.3125 14 6.3125C15.3807 6.3125 16.5 7.43179 16.5 8.8125C16.5 10.1932 15.3807 11.3125 14 11.3125C12.6193 11.3125 11.5 10.1932 11.5 8.8125ZM19.5 8.3125C18.9477 8.3125 18.5 8.76022 18.5 9.3125C18.5 9.86478 18.9477 10.3125 19.5 10.3125C20.0523 10.3125 20.5 9.86478 20.5 9.3125C20.5 8.76022 20.0523 8.3125 19.5 8.3125ZM17.5 9.3125C17.5 8.20793 18.3954 7.3125 19.5 7.3125C20.6046 7.3125 21.5 8.20793 21.5 9.3125C21.5 10.4171 20.6046 11.3125 19.5 11.3125C18.3954 11.3125 17.5 10.4171 17.5 9.3125ZM7.5 9.3125C7.5 8.76022 7.94772 8.3125 8.5 8.3125C9.05228 8.3125 9.5 8.76022 9.5 9.3125C9.5 9.86478 9.05228 10.3125 8.5 10.3125C7.94772 10.3125 7.5 9.86478 7.5 9.3125ZM8.5 7.3125C7.39543 7.3125 6.5 8.20793 6.5 9.3125C6.5 10.4171 7.39543 11.3125 8.5 11.3125C9.60457 11.3125 10.5 10.4171 10.5 9.3125C10.5 8.20793 9.60457 7.3125 8.5 7.3125ZM9.09952 19.3101C9.06655 19.3117 9.03337 19.3125 9 19.3125C7.89543 19.3125 7 18.4171 7 17.3125V13.5625C7 13.4244 7.11193 13.3125 7.25 13.3125H9.01373C9.05433 12.9453 9.18329 12.6047 9.37889 12.3125H7.25C6.55964 12.3125 6 12.8721 6 13.5625V17.3125C6 18.9694 7.34315 20.3125 9 20.3125C9.13712 20.3125 9.27209 20.3033 9.40434 20.2855C9.27099 19.9753 9.16813 19.6489 9.09952 19.3101ZM18.5957 20.2855C18.7279 20.3033 18.8629 20.3125 19 20.3125C20.6569 20.3125 22 18.9694 22 17.3125V13.5625C22 12.8721 21.4404 12.3125 20.75 12.3125H18.6211C18.8167 12.6047 18.9457 12.9453 18.9863 13.3125H20.75C20.8881 13.3125 21 13.4244 21 13.5625V17.3125C21 18.4171 20.1046 19.3125 19 19.3125C18.9666 19.3125 18.9334 19.3117 18.9005 19.3101C18.8319 19.6489 18.729 19.9753 18.5957 20.2855ZM11.25 12.3125C10.5596 12.3125 10 12.8721 10 13.5625V18.3125C10 20.5216 11.7909 22.3125 14 22.3125C16.2091 22.3125 18 20.5216 18 18.3125V13.5625C18 12.8721 17.4404 12.3125 16.75 12.3125H11.25ZM11 13.5625C11 13.4244 11.1119 13.3125 11.25 13.3125H16.75C16.8881 13.3125 17 13.4244 17 13.5625V18.3125C17 19.9694 15.6569 21.3125 14 21.3125C12.3431 21.3125 11 19.9694 11 18.3125V13.5625Z" fill="white"/>
</svg>
