<svg width="28" height="28" viewBox="0 0 28 28" fill="none" xmlns="http://www.w3.org/2000/svg">
<rect width="28" height="28" rx="4" fill="#B2CC4B"/>
<path d="M11.5 11C11.2239 11 11 11.2239 11 11.5C11 11.7761 11.2239 12 11.5 12H16.5C16.7761 12 17 11.7761 17 11.5C17 11.2239 16.7761 11 16.5 11H11.5ZM11 14.5C11 14.2239 11.2239 14 11.5 14H16.5C16.7761 14 17 14.2239 17 14.5C17 14.7761 16.7761 15 16.5 15H11.5C11.2239 15 11 14.7761 11 14.5ZM11.5 17C11.2239 17 11 17.2239 11 17.5C11 17.7761 11.2239 18 11.5 18H13.5C13.7761 18 14 17.7761 14 17.5C14 17.2239 13.7761 17 13.5 17H11.5ZM10.5 6C10.2239 6 10 6.22386 10 6.5V7H9.5C8.67157 7 8 7.67157 8 8.5V20.5C8 21.3284 8.67157 22 9.5 22H15.5C15.6326 22 15.7598 21.9473 15.8536 21.8536L19.8536 17.8536C19.9473 17.7598 20 17.6326 20 17.5V8.5C20 7.67157 19.3284 7 18.5 7H18V6.5C18 6.22386 17.7761 6 17.5 6C17.2239 6 17 6.22386 17 6.5V7H14.5V6.5C14.5 6.22386 14.2761 6 14 6C13.7239 6 13.5 6.22386 13.5 6.5V7H11V6.5C11 6.22386 10.7761 6 10.5 6ZM18.5 8C18.7761 8 19 8.22386 19 8.5V17H16.5C15.6716 17 15 17.6716 15 18.5V21H9.5C9.22386 21 9 20.7761 9 20.5V8.5C9 8.22386 9.22386 8 9.5 8H18.5ZM18.2929 18L16 20.2929V18.5C16 18.2239 16.2239 18 16.5 18H18.2929Z" fill="white"/>
</svg>
