<svg width="28" height="29" viewBox="0 0 28 29" fill="none" xmlns="http://www.w3.org/2000/svg">
<rect y="0.3125" width="28" height="28" rx="4" fill="#007AFF"/>
<path d="M11.3329 17.3125C11.8239 17.3125 12.2219 16.8648 12.2219 16.3125C12.2219 15.7602 11.8239 15.3125 11.3329 15.3125C10.8418 15.3125 10.4438 15.7602 10.4438 16.3125C10.4438 16.8648 10.8418 17.3125 11.3329 17.3125ZM14.8891 16.3125C14.8891 16.8648 14.491 17.3125 14 17.3125C13.509 17.3125 13.111 16.8648 13.111 16.3125C13.111 15.7602 13.509 15.3125 14 15.3125C14.491 15.3125 14.8891 15.7602 14.8891 16.3125ZM16.6672 17.3125C17.1582 17.3125 17.5562 16.8648 17.5562 16.3125C17.5562 15.7602 17.1582 15.3125 16.6672 15.3125C16.1762 15.3125 15.7781 15.7602 15.7781 16.3125C15.7781 16.8648 16.1762 17.3125 16.6672 17.3125ZM8.66568 7.60539C8.83241 7.41786 9.05854 7.3125 9.29434 7.3125H18.7057C18.9415 7.3125 19.1676 7.41786 19.3343 7.60539L21.6828 10.2469C22.3605 11.0092 21.8805 12.3125 20.9221 12.3125H20.2234V19.3125C20.2234 20.4171 19.4273 21.3125 18.4453 21.3125H9.55475C8.57273 21.3125 7.77664 20.4171 7.77664 19.3125V12.3125H7.07791C6.11952 12.3125 5.63955 11.0092 6.31724 10.2469L8.66568 7.60539ZM19.3343 19.3125V12.3125H8.6657V19.3125C8.6657 19.8648 9.06374 20.3125 9.55475 20.3125H18.4453C18.9363 20.3125 19.3343 19.8648 19.3343 19.3125ZM20.9221 11.3125C21.0884 11.3125 21.1717 11.0863 21.0541 10.954L18.7057 8.3125H9.29434L6.94589 10.954C6.82828 11.0863 6.91158 11.3125 7.07791 11.3125H20.9221Z" fill="white"/>
</svg>
