<svg width="28" height="29" viewBox="0 0 28 29" fill="none" xmlns="http://www.w3.org/2000/svg">
<rect y="0.3125" width="28" height="28" rx="4" fill="#FFB800"/>
<path d="M14 10.3125C11.7909 10.3125 10 12.1034 10 14.3125C10 16.5217 11.7909 18.3125 14 18.3125C16.2091 18.3125 18 16.5217 18 14.3125C18 12.1034 16.2091 10.3125 14 10.3125ZM11 14.3125C11 12.6557 12.3431 11.3125 14 11.3125C15.6569 11.3125 17 12.6557 17 14.3125C17 15.9694 15.6569 17.3125 14 17.3125C12.3431 17.3125 11 15.9694 11 14.3125ZM12.1239 6.3125C11.5569 6.3125 11.0383 6.63227 10.7837 7.13893L10.1942 8.3119H8.5047C7.12399 8.3119 6.0047 9.43118 6.0047 10.8119V18.8125C6.0047 20.1932 7.12399 21.3125 8.5047 21.3125H19.5047C20.8854 21.3125 22.0047 20.1932 22.0047 18.8125V10.8119C22.0047 9.43119 20.8854 8.3119 19.5047 8.3119H17.8148L17.2298 7.1418C16.9758 6.63356 16.4563 6.3125 15.8881 6.3125H12.1239ZM11.6772 7.58798C11.7621 7.41909 11.9349 7.3125 12.1239 7.3125H15.8881C16.0775 7.3125 16.2507 7.41952 16.3354 7.58893L17.0585 9.03546C17.1432 9.20488 17.3163 9.3119 17.5057 9.3119H19.5047C20.3331 9.3119 21.0047 9.98347 21.0047 10.8119V18.8125C21.0047 19.6409 20.3331 20.3125 19.5047 20.3125H8.5047C7.67627 20.3125 7.0047 19.6409 7.0047 18.8125V10.8119C7.0047 9.98347 7.67627 9.3119 8.5047 9.3119H10.5025C10.6915 9.3119 10.8644 9.20531 10.9492 9.03642L11.6772 7.58798Z" fill="white"/>
</svg>
