<svg width="28" height="29" viewBox="0 0 28 29" fill="none" xmlns="http://www.w3.org/2000/svg">
<rect y="0.3125" width="28" height="28" rx="4" fill="#067BFA"/>
<path d="M11.5 11.3125C11.2239 11.3125 11 11.5364 11 11.8125C11 12.0886 11.2239 12.3125 11.5 12.3125H16.5C16.7761 12.3125 17 12.0886 17 11.8125C17 11.5364 16.7761 11.3125 16.5 11.3125H11.5ZM11.5 17.3125C11.2239 17.3125 11 17.5364 11 17.8125C11 18.0886 11.2239 18.3125 11.5 18.3125H13.5C13.7761 18.3125 14 18.0886 14 17.8125C14 17.5364 13.7761 17.3125 13.5 17.3125H11.5ZM10.5 6.3125C10.2239 6.3125 10 6.53636 10 6.8125V7.3125H9.5C8.67157 7.3125 8 7.98407 8 8.8125V20.8125C8 21.6409 8.67157 22.3125 9.5 22.3125H15.3673C15.1994 21.9939 15.091 21.6559 15.0381 21.3125H9.5C9.22386 21.3125 9 21.0886 9 20.8125V8.8125C9 8.53636 9.22386 8.3125 9.5 8.3125H18.5C18.7761 8.3125 19 8.53636 19 8.8125V13.354C19.1626 13.3267 19.3296 13.3125 19.5 13.3125C19.6704 13.3125 19.8374 13.3267 20 13.354V8.8125C20 7.98407 19.3284 7.3125 18.5 7.3125H18V6.8125C18 6.53636 17.7761 6.3125 17.5 6.3125C17.2239 6.3125 17 6.53636 17 6.8125V7.3125H14.5V6.8125C14.5 6.53636 14.2761 6.3125 14 6.3125C13.7239 6.3125 13.5 6.53636 13.5 6.8125V7.3125H11V6.8125C11 6.53636 10.7761 6.3125 10.5 6.3125ZM19.5 18.3125C20.6046 18.3125 21.5 17.4171 21.5 16.3125C21.5 15.2079 20.6046 14.3125 19.5 14.3125C18.3954 14.3125 17.5 15.2079 17.5 16.3125C17.5 17.4171 18.3954 18.3125 19.5 18.3125ZM19.5 23.3125C22 23.3125 23 22.0577 23 20.8125C23 19.9841 22.3284 19.3125 21.5 19.3125H17.5C16.6716 19.3125 16 19.9841 16 20.8125C16 22.0624 17 23.3125 19.5 23.3125ZM11.5 14.3125C11.2239 14.3125 11 14.5364 11 14.8125C11 15.0886 11.2239 15.3125 11.5 15.3125H15C15.2761 15.3125 15.5 15.0886 15.5 14.8125C15.5 14.5364 15.2761 14.3125 15 14.3125H11.5Z" fill="white"/>
</svg>
