<svg width="28" height="29" viewBox="0 0 28 29" fill="none" xmlns="http://www.w3.org/2000/svg">
<rect y="0.3125" width="28" height="28" rx="4" fill="#B2CC4B"/>
<path d="M11.5 11.3125C11.2239 11.3125 11 11.5364 11 11.8125C11 12.0886 11.2239 12.3125 11.5 12.3125H16.5C16.7761 12.3125 17 12.0886 17 11.8125C17 11.5364 16.7761 11.3125 16.5 11.3125H11.5ZM11 14.8125C11 14.5364 11.2239 14.3125 11.5 14.3125H16.5C16.7761 14.3125 17 14.5364 17 14.8125C17 15.0886 16.7761 15.3125 16.5 15.3125H11.5C11.2239 15.3125 11 15.0886 11 14.8125ZM11.5 17.3125C11.2239 17.3125 11 17.5364 11 17.8125C11 18.0886 11.2239 18.3125 11.5 18.3125H13.5C13.7761 18.3125 14 18.0886 14 17.8125C14 17.5364 13.7761 17.3125 13.5 17.3125H11.5ZM10.5 6.3125C10.2239 6.3125 10 6.53636 10 6.8125V7.3125H9.5C8.67157 7.3125 8 7.98407 8 8.8125V20.8125C8 21.6409 8.67157 22.3125 9.5 22.3125H15.5C15.6326 22.3125 15.7598 22.2598 15.8536 22.1661L19.8536 18.1661C19.9473 18.0723 20 17.9451 20 17.8125V8.8125C20 7.98407 19.3284 7.3125 18.5 7.3125H18V6.8125C18 6.53636 17.7761 6.3125 17.5 6.3125C17.2239 6.3125 17 6.53636 17 6.8125V7.3125H14.5V6.8125C14.5 6.53636 14.2761 6.3125 14 6.3125C13.7239 6.3125 13.5 6.53636 13.5 6.8125V7.3125H11V6.8125C11 6.53636 10.7761 6.3125 10.5 6.3125ZM18.5 8.3125C18.7761 8.3125 19 8.53636 19 8.8125V17.3125H16.5C15.6716 17.3125 15 17.9841 15 18.8125V21.3125H9.5C9.22386 21.3125 9 21.0886 9 20.8125V8.8125C9 8.53636 9.22386 8.3125 9.5 8.3125H18.5ZM18.2929 18.3125L16 20.6054V18.8125C16 18.5364 16.2239 18.3125 16.5 18.3125H18.2929Z" fill="white"/>
</svg>
